<?xml version="1.0" standalone="no"?>
<!DOCTYPE svg PUBLIC "-//W3C//DTD SVG 20010904//EN" "http://www.w3.org/TR/2001/REC-SVG-20010904/DTD/svg10.dtd">
<!-- Created using Krita: https://krita.org -->
<svg xmlns="http://www.w3.org/2000/svg" 
    xmlns:xlink="http://www.w3.org/1999/xlink"
    xmlns:krita="http://krita.org/namespaces/svg/krita"
    xmlns:sodipodi="http://sodipodi.sourceforge.net/DTD/sodipodi-0.dtd"
    width="1152pt"
    height="864pt"
    viewBox="0 0 1152 864">
<defs/>
<ellipse id="shape0" transform="matrix(-1 0 0 1 817 193.64)" rx="108" ry="108" cx="108" cy="108" fill="none" stroke="#000000" stroke-width="3.6216" stroke-linecap="square" stroke-linejoin="bevel"/><path id="shape1" transform="matrix(-1 0 0 1 866.426951026846 289.416321246199)" fill="none" stroke="#000000" stroke-width="3.6216" stroke-linecap="square" stroke-linejoin="bevel" d="M26.4281 5.03392C34.8179 169.475 64.1824 273.929 114.522 318.395L13.8433 268.056L0 0Z"/><ellipse id="shape2" transform="translate(335, 193.64)" rx="108" ry="108" cx="108" cy="108" fill="none" stroke="#000000" stroke-width="3.6216" stroke-linecap="square" stroke-linejoin="bevel"/><path id="shape3" transform="translate(285.573048973154, 289.416321246199)" fill="none" stroke="#000000" stroke-width="3.6216" stroke-linecap="square" stroke-linejoin="bevel" d="M26.4281 5.03392C34.8179 169.475 64.1824 273.929 114.522 318.395L13.8433 268.056L0 0Z"/><path id="shape4" transform="translate(546.976145937353, 262.185834369625)" fill="none" stroke="#000000" stroke-width="3.6216" stroke-linecap="square" stroke-linejoin="bevel" d="M0 7.05631C19.8144 -2.2681 39.2124 -2.35135 58.1943 6.80654"/><path id="shape5" transform="translate(483.235853161287, 103.090315341075)" fill="none" stroke="#000000" stroke-width="3.6216" stroke-linecap="square" stroke-linejoin="bevel" d="M0 60.136C27.6817 26.7271 73.2609 6.68178 136.738 0"/><path id="shape0" transform="matrix(0.999999974911327 0 0 0.999999974911327 557.473029422472 109.667303780902)" fill="none" stroke="#000000" stroke-width="3.6216" stroke-linecap="square" stroke-linejoin="bevel" d="M0 60.136C27.6817 26.7271 73.2609 6.68178 136.738 0"/><path id="shape01" transform="matrix(0.999999974911327 0 0 0.999999974911327 636.710217807403 116.244292358018)" fill="none" stroke="#000000" stroke-width="3.6216" stroke-linecap="square" stroke-linejoin="bevel" d="M0 60.136C27.6817 26.7271 73.2609 6.68178 136.738 0"/>
</svg>
