<?xml version="1.0" standalone="no"?>
<!DOCTYPE svg PUBLIC "-//W3C//DTD SVG 20010904//EN" "http://www.w3.org/TR/2001/REC-SVG-20010904/DTD/svg10.dtd">
<!-- Created using Krita: https://krita.org -->
<svg xmlns="http://www.w3.org/2000/svg" 
    xmlns:xlink="http://www.w3.org/1999/xlink"
    xmlns:krita="http://krita.org/namespaces/svg/krita"
    xmlns:sodipodi="http://sodipodi.sourceforge.net/DTD/sodipodi-0.dtd"
    width="576pt"
    height="432pt"
    viewBox="0 0 576 432">
<defs/>
<ellipse id="shape0" transform="matrix(-1.71537504206708 0 0 1.69580665331687 982.169577446412 156.645073041425)" rx="108" ry="108" cx="108" cy="108" fill="none" stroke="#000000" stroke-width="3.6216" stroke-linecap="square" stroke-linejoin="bevel"/><path id="shape1" transform="matrix(-1.71537504206708 0 0 1.69580665331687 1066.95533564333 319.063195840943)" fill="none" stroke="#000000" stroke-width="3.6216" stroke-linecap="square" stroke-linejoin="bevel" d="M26.4281 5.03392C34.8179 169.475 64.1824 273.929 114.522 318.395L13.8433 268.056L0 0Z"/><ellipse id="shape2" transform="matrix(1.71537504206708 0 0 1.69580665331687 155.358807170078 156.645073041425)" rx="108" ry="108" cx="108" cy="108" fill="none" stroke="#000000" stroke-width="3.6216" stroke-linecap="square" stroke-linejoin="bevel"/><path id="shape3" transform="matrix(1.71537504206708 0 0 1.69580665331687 70.5730489731543 319.063195840943)" fill="none" stroke="#000000" stroke-width="3.6216" stroke-linecap="square" stroke-linejoin="bevel" d="M26.4281 5.03392C34.8179 169.475 64.1824 273.929 114.522 318.395L13.8433 268.056L0 0Z"/><path id="shape4" transform="matrix(1.71537504206708 0 0 1.69580665331687 518.977397424583 272.885555022591)" fill="none" stroke="#000000" stroke-width="3.6216" stroke-linecap="square" stroke-linejoin="bevel" d="M0 7.05631C19.8144 -2.2681 39.2124 -2.35135 58.1943 6.80654"/><path id="shape5" transform="matrix(1.71537504206708 0 0 1.69580665331687 409.638890022471 3.09031534107467)" fill="none" stroke="#000000" stroke-width="3.6216" stroke-linecap="square" stroke-linejoin="bevel" d="M0 60.136C27.6817 26.7271 73.2609 6.68178 136.738 0"/><path id="shape0" transform="matrix(1.7153749990306 0 0 1.69580661077133 536.983489374443 14.2436160961219)" fill="none" stroke="#000000" stroke-width="3.6216" stroke-linecap="square" stroke-linejoin="bevel" d="M0 60.136C27.6817 26.7271 73.2609 6.68178 136.738 0"/><path id="shape01" transform="matrix(1.7153749990306 0 0 1.69580661077133 672.904984733523 25.3969170839843)" fill="none" stroke="#000000" stroke-width="3.6216" stroke-linecap="square" stroke-linejoin="bevel" d="M0 60.136C27.6817 26.7271 73.2609 6.68178 136.738 0"/>
</svg>
