<?xml version="1.0" encoding="UTF-8" standalone="no"?>
<svg
   xmlns:dc="http://purl.org/dc/elements/1.1/"
   xmlns:cc="http://creativecommons.org/ns#"
   xmlns:rdf="http://www.w3.org/1999/02/22-rdf-syntax-ns#"
   xmlns:svg="http://www.w3.org/2000/svg"
   xmlns="http://www.w3.org/2000/svg"
   xmlns:sodipodi="http://sodipodi.sourceforge.net/DTD/sodipodi-0.dtd"
   xmlns:inkscape="http://www.inkscape.org/namespaces/inkscape"
   width="210mm"
   height="297mm"
   viewBox="0 0 210 297"
   version="1.1"
   id="svg8"
   inkscape:version="1.0.2-2 (e86c870879, 2021-01-15)"
   sodipodi:docname="spiral.svg">
  <defs
     id="defs2" />
  <sodipodi:namedview
     id="base"
     pagecolor="#ffffff"
     bordercolor="#666666"
     borderopacity="1.0"
     inkscape:pageopacity="0.0"
     inkscape:pageshadow="2"
     inkscape:zoom="0.7"
     inkscape:cx="244.75443"
     inkscape:cy="483.39639"
     inkscape:document-units="mm"
     inkscape:current-layer="layer1"
     inkscape:document-rotation="0"
     showgrid="false"
     inkscape:window-width="1920"
     inkscape:window-height="986"
     inkscape:window-x="-11"
     inkscape:window-y="-11"
     inkscape:window-maximized="1" />
  <metadata
     id="metadata5">
    <rdf:RDF>
      <cc:Work
         rdf:about="">
        <dc:format>image/svg+xml</dc:format>
        <dc:type
           rdf:resource="http://purl.org/dc/dcmitype/StillImage" />
        <dc:title></dc:title>
      </cc:Work>
    </rdf:RDF>
  </metadata>
  <g
     inkscape:label="Layer 1"
     inkscape:groupmode="layer"
     id="layer1">
    <path
       sodipodi:type="spiral"
       style="fill:none;fill-rule:evenodd;stroke:#000000;stroke-width:0.264583"
       id="path10"
       sodipodi:cx="106.58929"
       sodipodi:cy="80.508926"
       sodipodi:expansion="1"
       sodipodi:revolution="3"
       sodipodi:radius="71.369469"
       sodipodi:argument="-16.739248"
       sodipodi:t0="0"
       d="m 106.58929,80.508926 c -1.83826,3.070082 -5.04534,-0.963266 -5.10268,-3.055307 -0.15538,-5.669303 6.50636,-8.258812 11.21329,-7.150049 8.4196,1.983318 11.80407,11.77125 9.19742,19.37128 C 118.07195,100.8282 104.7982,105.1059 94.368055,100.91964 80.466314,95.340005 75.2766,78.471394 81.075896,65.232387 88.373719,48.572449 108.88312,42.463529 124.92113,49.892858 c 19.42418,8.997913 26.45606,33.171709 17.3869,52.003222 -10.68768,22.19229 -38.53961,30.14939 -60.161206,19.43427 C 57.183831,108.95932 48.300002,77.420558 60.665184,53.011156 74.71529,25.275642 109.94677,15.464034 137.14237,29.482146 c 30.50935,15.726202 41.2495,54.654545 25.57638,84.635164 -17.40014,33.28418 -60.0284,44.95345 -92.793157,27.62375" />
  </g>
</svg>
